<?xml version="1.0" encoding="UTF-8" standalone="no"?>
<!DOCTYPE svg PUBLIC "-//W3C//DTD SVG 1.1//EN"
 "http://www.w3.org/Graphics/SVG/1.1/DTD/svg11.dtd">
<!-- Generated by graphviz version 2.47.3 (20210619.1520)
 -->
<!-- Title: dependencies Pages: 1 -->
<svg width="1861pt" height="247pt"
 viewBox="0.00 0.00 1861.00 246.80" xmlns="http://www.w3.org/2000/svg" xmlns:xlink="http://www.w3.org/1999/xlink">
<g id="graph0" class="graph" transform="scale(1 1) rotate(0) translate(4 242.8)">
<title>dependencies</title>
<polygon fill="white" stroke="transparent" points="-4,4 -4,-242.8 1857,-242.8 1857,4 -4,4"/>
<text text-anchor="middle" x="926.5" y="-8.2" font-family="sans-serif" font-size="14.00">dependencies</text>
<g id="clust1" class="cluster">
<title>cluster_AppModule</title>
<polygon fill="none" stroke="black" stroke-dasharray="1,5" points="8,-32.8 8,-230.8 1845,-230.8 1845,-32.8 8,-32.8"/>
</g>
<g id="clust15" class="cluster">
<title>cluster_AppModule_providers</title>
<polygon fill="none" stroke="black" points="1567,-40.8 1567,-92.8 1837,-92.8 1837,-40.8 1567,-40.8"/>
</g>
<g id="clust12" class="cluster">
<title>cluster_AppModule_imports</title>
<polygon fill="none" stroke="black" points="1415,-40.8 1415,-92.8 1559,-92.8 1559,-40.8 1415,-40.8"/>
</g>
<g id="clust14" class="cluster">
<title>cluster_AppModule_bootstrap</title>
<polygon fill="none" stroke="black" points="808,-170.8 808,-222.8 932,-222.8 932,-170.8 808,-170.8"/>
</g>
<g id="clust2" class="cluster">
<title>cluster_AppModule_declarations</title>
<polygon fill="none" stroke="black" points="16,-40.8 16,-92.8 1407,-92.8 1407,-40.8 16,-40.8"/>
</g>
<!-- AboutMeComponent -->
<g id="node1" class="node">
<title>AboutMeComponent</title>
<polygon fill="#ffffb3" stroke="black" points="1399.49,-84.8 1264.51,-84.8 1264.51,-48.8 1399.49,-48.8 1399.49,-84.8"/>
<text text-anchor="middle" x="1332" y="-62.6" font-family="Times,serif" font-size="14.00">AboutMeComponent</text>
</g>
<!-- AppModule -->
<g id="node10" class="node">
<title>AppModule</title>
<polygon fill="#8dd3c7" stroke="black" points="911.66,-149.8 908.66,-153.8 887.66,-153.8 884.66,-149.8 828.34,-149.8 828.34,-113.8 911.66,-113.8 911.66,-149.8"/>
<text text-anchor="middle" x="870" y="-127.6" font-family="Times,serif" font-size="14.00">AppModule</text>
</g>
<!-- AboutMeComponent&#45;&gt;AppModule -->
<g id="edge1" class="edge">
<title>AboutMeComponent&#45;&gt;AppModule</title>
<path fill="none" stroke="black" d="M1332,-84.91C1332,-104.14 1332,-131.8 1332,-131.8 1332,-131.8 921.81,-131.8 921.81,-131.8"/>
<polygon fill="black" stroke="black" points="921.81,-128.3 911.81,-131.8 921.81,-135.3 921.81,-128.3"/>
</g>
<!-- AboutTheBlogComponent -->
<g id="node2" class="node">
<title>AboutTheBlogComponent</title>
<polygon fill="#ffffb3" stroke="black" points="1246.82,-84.8 1081.18,-84.8 1081.18,-48.8 1246.82,-48.8 1246.82,-84.8"/>
<text text-anchor="middle" x="1164" y="-62.6" font-family="Times,serif" font-size="14.00">AboutTheBlogComponent</text>
</g>
<!-- AboutTheBlogComponent&#45;&gt;AppModule -->
<g id="edge2" class="edge">
<title>AboutTheBlogComponent&#45;&gt;AppModule</title>
<path fill="none" stroke="black" d="M1164,-84.82C1164,-102.17 1164,-125.8 1164,-125.8 1164,-125.8 921.81,-125.8 921.81,-125.8"/>
<polygon fill="black" stroke="black" points="921.81,-122.3 911.81,-125.8 921.81,-129.3 921.81,-122.3"/>
</g>
<!-- AppComponent -->
<g id="node3" class="node">
<title>AppComponent</title>
<polygon fill="#ffffb3" stroke="black" points="1063.94,-84.8 958.06,-84.8 958.06,-48.8 1063.94,-48.8 1063.94,-84.8"/>
<text text-anchor="middle" x="1011" y="-62.6" font-family="Times,serif" font-size="14.00">AppComponent</text>
</g>
<!-- AppComponent&#45;&gt;AppModule -->
<g id="edge3" class="edge">
<title>AppComponent&#45;&gt;AppModule</title>
<path fill="none" stroke="black" d="M1011,-85.04C1011,-100.37 1011,-119.8 1011,-119.8 1011,-119.8 921.92,-119.8 921.92,-119.8"/>
<polygon fill="black" stroke="black" points="921.92,-116.3 911.92,-119.8 921.92,-123.3 921.92,-116.3"/>
</g>
<!-- BlogCardsComponent -->
<g id="node4" class="node">
<title>BlogCardsComponent</title>
<polygon fill="#ffffb3" stroke="black" points="940.72,-84.8 799.28,-84.8 799.28,-48.8 940.72,-48.8 940.72,-84.8"/>
<text text-anchor="middle" x="870" y="-62.6" font-family="Times,serif" font-size="14.00">BlogCardsComponent</text>
</g>
<!-- BlogCardsComponent&#45;&gt;AppModule -->
<g id="edge4" class="edge">
<title>BlogCardsComponent&#45;&gt;AppModule</title>
<path fill="none" stroke="black" d="M870,-84.91C870,-84.91 870,-103.79 870,-103.79"/>
<polygon fill="black" stroke="black" points="866.5,-103.79 870,-113.79 873.5,-103.79 866.5,-103.79"/>
</g>
<!-- BlogShowcaseComponent -->
<g id="node5" class="node">
<title>BlogShowcaseComponent</title>
<polygon fill="#ffffb3" stroke="black" points="781.04,-84.8 616.96,-84.8 616.96,-48.8 781.04,-48.8 781.04,-84.8"/>
<text text-anchor="middle" x="699" y="-62.6" font-family="Times,serif" font-size="14.00">BlogShowcaseComponent</text>
</g>
<!-- BlogShowcaseComponent&#45;&gt;AppModule -->
<g id="edge5" class="edge">
<title>BlogShowcaseComponent&#45;&gt;AppModule</title>
<path fill="none" stroke="black" d="M699,-85.04C699,-100.37 699,-119.8 699,-119.8 699,-119.8 818.17,-119.8 818.17,-119.8"/>
<polygon fill="black" stroke="black" points="818.17,-123.3 828.17,-119.8 818.17,-116.3 818.17,-123.3"/>
</g>
<!-- BlogViewComponent -->
<g id="node6" class="node">
<title>BlogViewComponent</title>
<polygon fill="#ffffb3" stroke="black" points="598.38,-84.8 459.62,-84.8 459.62,-48.8 598.38,-48.8 598.38,-84.8"/>
<text text-anchor="middle" x="529" y="-62.6" font-family="Times,serif" font-size="14.00">BlogViewComponent</text>
</g>
<!-- BlogViewComponent&#45;&gt;AppModule -->
<g id="edge6" class="edge">
<title>BlogViewComponent&#45;&gt;AppModule</title>
<path fill="none" stroke="black" d="M529,-84.82C529,-102.17 529,-125.8 529,-125.8 529,-125.8 818.19,-125.8 818.19,-125.8"/>
<polygon fill="black" stroke="black" points="818.19,-129.3 828.19,-125.8 818.19,-122.3 818.19,-129.3"/>
</g>
<!-- FooterComponent -->
<g id="node7" class="node">
<title>FooterComponent</title>
<polygon fill="#ffffb3" stroke="black" points="441.88,-84.8 324.12,-84.8 324.12,-48.8 441.88,-48.8 441.88,-84.8"/>
<text text-anchor="middle" x="383" y="-62.6" font-family="Times,serif" font-size="14.00">FooterComponent</text>
</g>
<!-- FooterComponent&#45;&gt;AppModule -->
<g id="edge7" class="edge">
<title>FooterComponent&#45;&gt;AppModule</title>
<path fill="none" stroke="black" d="M383,-84.91C383,-104.14 383,-131.8 383,-131.8 383,-131.8 818.06,-131.8 818.06,-131.8"/>
<polygon fill="black" stroke="black" points="818.06,-135.3 828.06,-131.8 818.06,-128.3 818.06,-135.3"/>
</g>
<!-- HomepageComponent -->
<g id="node8" class="node">
<title>HomepageComponent</title>
<polygon fill="#ffffb3" stroke="black" points="305.97,-84.8 164.03,-84.8 164.03,-48.8 305.97,-48.8 305.97,-84.8"/>
<text text-anchor="middle" x="235" y="-62.6" font-family="Times,serif" font-size="14.00">HomepageComponent</text>
</g>
<!-- HomepageComponent&#45;&gt;AppModule -->
<g id="edge8" class="edge">
<title>HomepageComponent&#45;&gt;AppModule</title>
<path fill="none" stroke="black" d="M235,-85.08C235,-106.12 235,-137.8 235,-137.8 235,-137.8 818.34,-137.8 818.34,-137.8"/>
<polygon fill="black" stroke="black" points="818.34,-141.3 828.34,-137.8 818.34,-134.3 818.34,-141.3"/>
</g>
<!-- NavbarComponent -->
<g id="node9" class="node">
<title>NavbarComponent</title>
<polygon fill="#ffffb3" stroke="black" points="146.03,-84.8 23.97,-84.8 23.97,-48.8 146.03,-48.8 146.03,-84.8"/>
<text text-anchor="middle" x="85" y="-62.6" font-family="Times,serif" font-size="14.00">NavbarComponent</text>
</g>
<!-- NavbarComponent&#45;&gt;AppModule -->
<g id="edge9" class="edge">
<title>NavbarComponent&#45;&gt;AppModule</title>
<path fill="none" stroke="black" d="M85,-85.05C85,-107.82 85,-143.8 85,-143.8 85,-143.8 818.07,-143.8 818.07,-143.8"/>
<polygon fill="black" stroke="black" points="818.07,-147.3 828.07,-143.8 818.07,-140.3 818.07,-147.3"/>
</g>
<!-- AppComponent  -->
<g id="node12" class="node">
<title>AppComponent </title>
<polygon fill="#80b1d3" stroke="black" points="924.44,-214.8 815.56,-214.8 815.56,-178.8 924.44,-178.8 924.44,-214.8"/>
<text text-anchor="middle" x="870" y="-192.6" font-family="Times,serif" font-size="14.00">AppComponent </text>
</g>
<!-- AppModule&#45;&gt;AppComponent  -->
<g id="edge11" class="edge">
<title>AppModule&#45;&gt;AppComponent </title>
<path fill="none" stroke="black" stroke-dasharray="1,5" d="M870,-149.91C870,-149.91 870,-168.79 870,-168.79"/>
<polygon fill="black" stroke="black" points="866.5,-168.79 870,-178.79 873.5,-168.79 866.5,-168.79"/>
</g>
<!-- AppRoutingModule -->
<g id="node11" class="node">
<title>AppRoutingModule</title>
<polygon fill="#8dd3c7" stroke="black" points="1551.27,-84.8 1548.27,-88.8 1527.27,-88.8 1524.27,-84.8 1422.73,-84.8 1422.73,-48.8 1551.27,-48.8 1551.27,-84.8"/>
<text text-anchor="middle" x="1487" y="-62.6" font-family="Times,serif" font-size="14.00">AppRoutingModule</text>
</g>
<!-- AppRoutingModule&#45;&gt;AppModule -->
<g id="edge10" class="edge">
<title>AppRoutingModule&#45;&gt;AppModule</title>
<path fill="none" stroke="black" d="M1487,-85.08C1487,-106.12 1487,-137.8 1487,-137.8 1487,-137.8 921.92,-137.8 921.92,-137.8"/>
<polygon fill="black" stroke="black" points="921.92,-134.3 911.92,-137.8 921.92,-141.3 921.92,-134.3"/>
</g>
<!-- ContentfulManagmentService -->
<g id="node13" class="node">
<title>ContentfulManagmentService</title>
<ellipse fill="#fdb462" stroke="black" cx="1702" cy="-66.8" rx="127.35" ry="18"/>
<text text-anchor="middle" x="1702" y="-62.6" font-family="Times,serif" font-size="14.00">ContentfulManagmentService</text>
</g>
<!-- ContentfulManagmentService&#45;&gt;AppModule -->
<g id="edge12" class="edge">
<title>ContentfulManagmentService&#45;&gt;AppModule</title>
<path fill="none" stroke="black" d="M1702,-85.05C1702,-107.82 1702,-143.8 1702,-143.8 1702,-143.8 921.83,-143.8 921.83,-143.8"/>
<polygon fill="black" stroke="black" points="921.83,-140.3 911.83,-143.8 921.83,-147.3 921.83,-140.3"/>
</g>
</g>
</svg>
