<?xml version="1.0" encoding="UTF-8" standalone="no"?>
<!DOCTYPE svg PUBLIC "-//W3C//DTD SVG 1.1//EN"
 "http://www.w3.org/Graphics/SVG/1.1/DTD/svg11.dtd">
<!-- Generated by graphviz version 2.47.3 (20210619.1520)
 -->
<!-- Title: dependencies Pages: 1 -->
<svg width="1861pt" height="247pt"
 viewBox="0.00 0.00 1861.00 246.80" xmlns="http://www.w3.org/2000/svg" xmlns:xlink="http://www.w3.org/1999/xlink">
<g id="graph0" class="graph" transform="scale(1 1) rotate(0) translate(4 242.8)">
<title>dependencies</title>
<polygon fill="white" stroke="transparent" points="-4,4 -4,-242.8 1857,-242.8 1857,4 -4,4"/>
<text text-anchor="middle" x="926.5" y="-8.2" font-family="sans-serif" font-size="14.00">dependencies</text>
<g id="clust1" class="cluster">
<title>cluster_AppModule</title>
<polygon fill="none" stroke="black" stroke-dasharray="1,5" points="8,-32.8 8,-230.8 1845,-230.8 1845,-32.8 8,-32.8"/>
</g>
<g id="clust2" class="cluster">
<title>cluster_AppModule_declarations</title>
<polygon fill="none" stroke="black" points="446,-40.8 446,-92.8 1837,-92.8 1837,-40.8 446,-40.8"/>
</g>
<g id="clust12" class="cluster">
<title>cluster_AppModule_imports</title>
<polygon fill="none" stroke="black" points="294,-40.8 294,-92.8 438,-92.8 438,-40.8 294,-40.8"/>
</g>
<g id="clust14" class="cluster">
<title>cluster_AppModule_bootstrap</title>
<polygon fill="none" stroke="black" points="897,-170.8 897,-222.8 1021,-222.8 1021,-170.8 897,-170.8"/>
</g>
<g id="clust15" class="cluster">
<title>cluster_AppModule_providers</title>
<polygon fill="none" stroke="black" points="16,-40.8 16,-92.8 286,-92.8 286,-40.8 16,-40.8"/>
</g>
<!-- AboutMeComponent -->
<g id="node1" class="node">
<title>AboutMeComponent</title>
<polygon fill="#ffffb3" stroke="black" points="1829.49,-84.8 1694.51,-84.8 1694.51,-48.8 1829.49,-48.8 1829.49,-84.8"/>
<text text-anchor="middle" x="1762" y="-62.6" font-family="Times,serif" font-size="14.00">AboutMeComponent</text>
</g>
<!-- AppModule -->
<g id="node10" class="node">
<title>AppModule</title>
<polygon fill="#8dd3c7" stroke="black" points="1000.66,-149.8 997.66,-153.8 976.66,-153.8 973.66,-149.8 917.34,-149.8 917.34,-113.8 1000.66,-113.8 1000.66,-149.8"/>
<text text-anchor="middle" x="959" y="-127.6" font-family="Times,serif" font-size="14.00">AppModule</text>
</g>
<!-- AboutMeComponent&#45;&gt;AppModule -->
<g id="edge1" class="edge">
<title>AboutMeComponent&#45;&gt;AppModule</title>
<path fill="none" stroke="black" d="M1762,-85.05C1762,-107.82 1762,-143.8 1762,-143.8 1762,-143.8 1010.76,-143.8 1010.76,-143.8"/>
<polygon fill="black" stroke="black" points="1010.76,-140.3 1000.76,-143.8 1010.76,-147.3 1010.76,-140.3"/>
</g>
<!-- AboutTheBlogComponent -->
<g id="node2" class="node">
<title>AboutTheBlogComponent</title>
<polygon fill="#ffffb3" stroke="black" points="1676.82,-84.8 1511.18,-84.8 1511.18,-48.8 1676.82,-48.8 1676.82,-84.8"/>
<text text-anchor="middle" x="1594" y="-62.6" font-family="Times,serif" font-size="14.00">AboutTheBlogComponent</text>
</g>
<!-- AboutTheBlogComponent&#45;&gt;AppModule -->
<g id="edge2" class="edge">
<title>AboutTheBlogComponent&#45;&gt;AppModule</title>
<path fill="none" stroke="black" d="M1594,-85.08C1594,-106.12 1594,-137.8 1594,-137.8 1594,-137.8 1010.66,-137.8 1010.66,-137.8"/>
<polygon fill="black" stroke="black" points="1010.66,-134.3 1000.66,-137.8 1010.66,-141.3 1010.66,-134.3"/>
</g>
<!-- AppComponent -->
<g id="node3" class="node">
<title>AppComponent</title>
<polygon fill="#ffffb3" stroke="black" points="1493.94,-84.8 1388.06,-84.8 1388.06,-48.8 1493.94,-48.8 1493.94,-84.8"/>
<text text-anchor="middle" x="1441" y="-62.6" font-family="Times,serif" font-size="14.00">AppComponent</text>
</g>
<!-- AppComponent&#45;&gt;AppModule -->
<g id="edge3" class="edge">
<title>AppComponent&#45;&gt;AppModule</title>
<path fill="none" stroke="black" d="M1441,-84.91C1441,-104.14 1441,-131.8 1441,-131.8 1441,-131.8 1010.93,-131.8 1010.93,-131.8"/>
<polygon fill="black" stroke="black" points="1010.93,-128.3 1000.93,-131.8 1010.93,-135.3 1010.93,-128.3"/>
</g>
<!-- BlogCardsComponent -->
<g id="node4" class="node">
<title>BlogCardsComponent</title>
<polygon fill="#ffffb3" stroke="black" points="1370.72,-84.8 1229.28,-84.8 1229.28,-48.8 1370.72,-48.8 1370.72,-84.8"/>
<text text-anchor="middle" x="1300" y="-62.6" font-family="Times,serif" font-size="14.00">BlogCardsComponent</text>
</g>
<!-- BlogCardsComponent&#45;&gt;AppModule -->
<g id="edge4" class="edge">
<title>BlogCardsComponent&#45;&gt;AppModule</title>
<path fill="none" stroke="black" d="M1300,-84.82C1300,-102.17 1300,-125.8 1300,-125.8 1300,-125.8 1010.81,-125.8 1010.81,-125.8"/>
<polygon fill="black" stroke="black" points="1010.81,-122.3 1000.81,-125.8 1010.81,-129.3 1010.81,-122.3"/>
</g>
<!-- BlogShowcaseComponent -->
<g id="node5" class="node">
<title>BlogShowcaseComponent</title>
<polygon fill="#ffffb3" stroke="black" points="1211.04,-84.8 1046.96,-84.8 1046.96,-48.8 1211.04,-48.8 1211.04,-84.8"/>
<text text-anchor="middle" x="1129" y="-62.6" font-family="Times,serif" font-size="14.00">BlogShowcaseComponent</text>
</g>
<!-- BlogShowcaseComponent&#45;&gt;AppModule -->
<g id="edge5" class="edge">
<title>BlogShowcaseComponent&#45;&gt;AppModule</title>
<path fill="none" stroke="black" d="M1129,-85.04C1129,-100.37 1129,-119.8 1129,-119.8 1129,-119.8 1011.02,-119.8 1011.02,-119.8"/>
<polygon fill="black" stroke="black" points="1011.02,-116.3 1001.02,-119.8 1011.02,-123.3 1011.02,-116.3"/>
</g>
<!-- BlogViewComponent -->
<g id="node6" class="node">
<title>BlogViewComponent</title>
<polygon fill="#ffffb3" stroke="black" points="1028.38,-84.8 889.62,-84.8 889.62,-48.8 1028.38,-48.8 1028.38,-84.8"/>
<text text-anchor="middle" x="959" y="-62.6" font-family="Times,serif" font-size="14.00">BlogViewComponent</text>
</g>
<!-- BlogViewComponent&#45;&gt;AppModule -->
<g id="edge6" class="edge">
<title>BlogViewComponent&#45;&gt;AppModule</title>
<path fill="none" stroke="black" d="M959,-84.91C959,-84.91 959,-103.79 959,-103.79"/>
<polygon fill="black" stroke="black" points="955.5,-103.79 959,-113.79 962.5,-103.79 955.5,-103.79"/>
</g>
<!-- FooterComponent -->
<g id="node7" class="node">
<title>FooterComponent</title>
<polygon fill="#ffffb3" stroke="black" points="871.88,-84.8 754.12,-84.8 754.12,-48.8 871.88,-48.8 871.88,-84.8"/>
<text text-anchor="middle" x="813" y="-62.6" font-family="Times,serif" font-size="14.00">FooterComponent</text>
</g>
<!-- FooterComponent&#45;&gt;AppModule -->
<g id="edge7" class="edge">
<title>FooterComponent&#45;&gt;AppModule</title>
<path fill="none" stroke="black" d="M813,-85.04C813,-100.37 813,-119.8 813,-119.8 813,-119.8 907.16,-119.8 907.16,-119.8"/>
<polygon fill="black" stroke="black" points="907.16,-123.3 917.16,-119.8 907.16,-116.3 907.16,-123.3"/>
</g>
<!-- HomepageComponent -->
<g id="node8" class="node">
<title>HomepageComponent</title>
<polygon fill="#ffffb3" stroke="black" points="735.97,-84.8 594.03,-84.8 594.03,-48.8 735.97,-48.8 735.97,-84.8"/>
<text text-anchor="middle" x="665" y="-62.6" font-family="Times,serif" font-size="14.00">HomepageComponent</text>
</g>
<!-- HomepageComponent&#45;&gt;AppModule -->
<g id="edge8" class="edge">
<title>HomepageComponent&#45;&gt;AppModule</title>
<path fill="none" stroke="black" d="M665,-84.82C665,-102.17 665,-125.8 665,-125.8 665,-125.8 907.19,-125.8 907.19,-125.8"/>
<polygon fill="black" stroke="black" points="907.19,-129.3 917.19,-125.8 907.19,-122.3 907.19,-129.3"/>
</g>
<!-- NavbarComponent -->
<g id="node9" class="node">
<title>NavbarComponent</title>
<polygon fill="#ffffb3" stroke="black" points="576.03,-84.8 453.97,-84.8 453.97,-48.8 576.03,-48.8 576.03,-84.8"/>
<text text-anchor="middle" x="515" y="-62.6" font-family="Times,serif" font-size="14.00">NavbarComponent</text>
</g>
<!-- NavbarComponent&#45;&gt;AppModule -->
<g id="edge9" class="edge">
<title>NavbarComponent&#45;&gt;AppModule</title>
<path fill="none" stroke="black" d="M515,-84.91C515,-104.14 515,-131.8 515,-131.8 515,-131.8 907.23,-131.8 907.23,-131.8"/>
<polygon fill="black" stroke="black" points="907.23,-135.3 917.23,-131.8 907.23,-128.3 907.23,-135.3"/>
</g>
<!-- AppComponent  -->
<g id="node12" class="node">
<title>AppComponent </title>
<polygon fill="#80b1d3" stroke="black" points="1013.44,-214.8 904.56,-214.8 904.56,-178.8 1013.44,-178.8 1013.44,-214.8"/>
<text text-anchor="middle" x="959" y="-192.6" font-family="Times,serif" font-size="14.00">AppComponent </text>
</g>
<!-- AppModule&#45;&gt;AppComponent  -->
<g id="edge11" class="edge">
<title>AppModule&#45;&gt;AppComponent </title>
<path fill="none" stroke="black" stroke-dasharray="1,5" d="M959,-149.91C959,-149.91 959,-168.79 959,-168.79"/>
<polygon fill="black" stroke="black" points="955.5,-168.79 959,-178.79 962.5,-168.79 955.5,-168.79"/>
</g>
<!-- AppRoutingModule -->
<g id="node11" class="node">
<title>AppRoutingModule</title>
<polygon fill="#8dd3c7" stroke="black" points="430.27,-84.8 427.27,-88.8 406.27,-88.8 403.27,-84.8 301.73,-84.8 301.73,-48.8 430.27,-48.8 430.27,-84.8"/>
<text text-anchor="middle" x="366" y="-62.6" font-family="Times,serif" font-size="14.00">AppRoutingModule</text>
</g>
<!-- AppRoutingModule&#45;&gt;AppModule -->
<g id="edge10" class="edge">
<title>AppRoutingModule&#45;&gt;AppModule</title>
<path fill="none" stroke="black" d="M366,-85.08C366,-106.12 366,-137.8 366,-137.8 366,-137.8 907.3,-137.8 907.3,-137.8"/>
<polygon fill="black" stroke="black" points="907.3,-141.3 917.3,-137.8 907.3,-134.3 907.3,-141.3"/>
</g>
<!-- ContentfulManagmentService -->
<g id="node13" class="node">
<title>ContentfulManagmentService</title>
<ellipse fill="#fdb462" stroke="black" cx="151" cy="-66.8" rx="127.35" ry="18"/>
<text text-anchor="middle" x="151" y="-62.6" font-family="Times,serif" font-size="14.00">ContentfulManagmentService</text>
</g>
<!-- ContentfulManagmentService&#45;&gt;AppModule -->
<g id="edge12" class="edge">
<title>ContentfulManagmentService&#45;&gt;AppModule</title>
<path fill="none" stroke="black" d="M151,-85.05C151,-107.82 151,-143.8 151,-143.8 151,-143.8 907.26,-143.8 907.26,-143.8"/>
<polygon fill="black" stroke="black" points="907.26,-147.3 917.26,-143.8 907.26,-140.3 907.26,-147.3"/>
</g>
</g>
</svg>
